<svg xmlns="http://www.w3.org/2000/svg" viewBox="0 0 207.04 213.32"><defs><style>.cls-1{fill:#00b1ff;}.cls-2{fill:#02bc37;}</style></defs><title>justthetip</title><g id="Layer_2" data-name="Layer 2"><g id="Layer_5" data-name="Layer 5"><path class="cls-1" d="M122.88,128.63s-21.91-6-42.31,1.17c-30.95,10.86-52.42,33.67-61.24,44.42l1.84,3.19a7.56,7.56,0,0,0,10.35,2.78l44.23-25.47v51a7.56,7.56,0,0,0,7.57,7.57h40.4a7.56,7.56,0,0,0,7.57-7.57V154.69l44.23,25.48a7.59,7.59,0,0,0,10.35-2.78l1.84-3.2C178.59,163,155.83,138.72,122.88,128.63ZM103.52,166.4a15,15,0,1,1,15-15A15,15,0,0,1,103.52,166.4Z"/><path class="cls-2" d="M3.8,81.32l44.06,25.35L3.8,132A7.57,7.57,0,0,0,1,142.4l8.5,14.78C34,147.53,116,106.72,94,0H83.33a7.56,7.56,0,0,0-7.57,7.57V58.63L31.52,33.15a7.59,7.59,0,0,0-10.35,2.78L1,71A7.59,7.59,0,0,0,3.8,81.32Z"/><path class="cls-2" d="M197.52,157.17l8.51-14.8A7.59,7.59,0,0,0,203.25,132L159.2,106.67,203.25,81.3A7.56,7.56,0,0,0,206,71L185.88,36a7.57,7.57,0,0,0-10.35-2.78L131.3,58.63V7.57A7.57,7.57,0,0,0,123.72,0H113.05C91.09,106.71,173.07,147.52,197.52,157.17Z"/><path class="cls-1" d="M77.86,120.33a.67.67,0,0,0,.73.24c27.32-8,49.6-.09,49.82,0a.67.67,0,0,0,.79-1c-.23-.35-23-34.91-25-53.62a.67.67,0,0,0-1.33,0c-2,18.71-24.78,53.27-25,53.62A.67.67,0,0,0,77.86,120.33Z"/></g></g></svg>